<svg width="65" height="58" viewBox="0 0 65 58" fill="none" xmlns="http://www.w3.org/2000/svg">
<g filter="url(#filter0_d_0_78)">
<path d="M8 12C8 8.68629 10.6863 6 14 6H51C54.3137 6 57 8.68629 57 12V71H8V12Z" fill="white"/>
<rect x="12" y="10" width="17" height="6" fill="#F5F5F5"/>
<rect x="42" y="12" width="11" height="2" fill="#F5F5F5"/>
<rect x="12" y="20" width="41" height="10" fill="#FEE7EA"/>
<circle cx="18.5" cy="40" r="6" fill="#E60A2B"/>
<circle cx="32.5" cy="40" r="6" fill="#E1F3FF"/>
<circle cx="46.5" cy="40" r="6" fill="#FEF7E1"/>
<path d="M18.1677 44.125V43.1625C17.7323 43.0861 17.3752 42.92 17.0964 42.6641C16.8176 42.4082 16.617 42.0854 16.4948 41.6958L17.1365 41.4323C17.2663 41.799 17.4535 42.072 17.6979 42.2516C17.9424 42.4311 18.2365 42.5208 18.5802 42.5208C18.9469 42.5208 19.2486 42.4292 19.4854 42.2458C19.7222 42.0625 19.8406 41.8104 19.8406 41.4896C19.8406 41.1535 19.7356 40.8938 19.5255 40.7104C19.3155 40.5271 18.9202 40.3399 18.3396 40.149C17.7896 39.9733 17.379 39.7403 17.1078 39.45C16.8367 39.1597 16.7011 38.7969 16.7011 38.3615C16.7011 37.9413 16.8367 37.5899 17.1078 37.3073C17.379 37.0247 17.7323 36.8642 18.1677 36.826V35.875H18.8552V36.826C19.199 36.8642 19.495 36.9769 19.7432 37.1641C19.9915 37.3512 20.1806 37.5899 20.3104 37.8802L19.6688 38.1552C19.5618 37.9108 19.4186 37.7332 19.2391 37.6224C19.0596 37.5116 18.8247 37.4562 18.5344 37.4562C18.183 37.4562 17.9042 37.5365 17.6979 37.6969C17.4917 37.8573 17.3886 38.075 17.3886 38.35C17.3886 38.6403 17.5031 38.8752 17.7323 39.0547C17.9615 39.2342 18.3854 39.4194 19.0042 39.6104C19.5236 39.7708 19.9075 40.0019 20.1557 40.3036C20.404 40.6054 20.5281 40.9854 20.5281 41.4437C20.5281 41.925 20.3868 42.3127 20.1042 42.6068C19.8215 42.9009 19.4052 43.0899 18.8552 43.174V44.125H18.1677Z" fill="white"/>
<path d="M29.75 44.125V43.3917C29.9486 43.2694 30.1281 43.1339 30.2885 42.9849C30.449 42.8359 30.5865 42.6774 30.701 42.5094C30.8156 42.3413 30.9035 42.1618 30.9646 41.9708C31.0257 41.7799 31.0563 41.5813 31.0563 41.375C31.0563 41.2757 31.0505 41.1802 31.0391 41.0885C31.0276 40.9969 31.0104 40.9014 30.9875 40.8021H29.75V40.1146H30.6437C30.3458 39.7021 30.1415 39.3373 30.0307 39.0203C29.92 38.7033 29.8646 38.3806 29.8646 38.0521C29.8646 37.3799 30.0976 36.8108 30.5635 36.3448C31.0295 35.8788 31.5986 35.6458 32.2708 35.6458C32.7674 35.6458 33.2161 35.77 33.6172 36.0182C34.0182 36.2665 34.3142 36.6007 34.5052 37.0208L33.875 37.2844C33.7375 36.9941 33.5217 36.763 33.2276 36.5911C32.9335 36.4193 32.6146 36.3333 32.2708 36.3333C31.7972 36.3333 31.3924 36.4995 31.0563 36.8318C30.7201 37.1641 30.5521 37.5708 30.5521 38.0521C30.5521 38.35 30.6132 38.6422 30.7354 38.9286C30.8576 39.2151 31.1021 39.6104 31.4688 40.1146H33.4167V40.8021H31.6865C31.7094 40.9014 31.7247 41.0007 31.7323 41.1C31.7399 41.1993 31.7438 41.291 31.7438 41.375C31.7438 41.7799 31.6559 42.158 31.4802 42.5094C31.3045 42.8608 31.083 43.1701 30.8156 43.4375H33.4167C33.7069 43.4375 33.9628 43.3611 34.1844 43.2083C34.4059 43.0556 34.5663 42.8073 34.6656 42.4635L35.2615 42.7615C35.1622 43.2122 34.9311 43.5521 34.5682 43.7813C34.2054 44.0104 33.8215 44.125 33.4167 44.125H29.75Z" fill="#81CFFE"/>
<path d="M46.1563 44.125V42.4063H43.75V41.7188H46.1563V40.5729H43.75V39.8854H45.824L43.2917 35.875H44.1052L46.5 39.6677L48.8948 35.875H49.7084L47.1761 39.8854H49.25V40.5729H46.8438V41.7188H49.25V42.4063H46.8438V44.125H46.1563Z" fill="#FCE08D"/>
<rect x="12" y="49" width="26" height="10" fill="#F5F5F5"/>
<path d="M51.3333 51.0833L47.0256 55.4583L45.2308 53.6354L42 56.9167" stroke="#A8E39C" stroke-width="1.5" stroke-linecap="round" stroke-linejoin="round"/>
<path d="M51.3334 54.5833V51.0833H47.8334" stroke="#A8E39C" stroke-width="1.5" stroke-linecap="round" stroke-linejoin="round"/>
</g>
<defs>
<filter id="filter0_d_0_78" x="-2" y="0" width="69" height="85" filterUnits="userSpaceOnUse" color-interpolation-filters="sRGB">
<feFlood flood-opacity="0" result="BackgroundImageFix"/>
<feColorMatrix in="SourceAlpha" type="matrix" values="0 0 0 0 0 0 0 0 0 0 0 0 0 0 0 0 0 0 127 0" result="hardAlpha"/>
<feOffset dy="4"/>
<feGaussianBlur stdDeviation="5"/>
<feComposite in2="hardAlpha" operator="out"/>
<feColorMatrix type="matrix" values="0 0 0 0 0.4 0 0 0 0 0.4 0 0 0 0 0.4 0 0 0 0.1 0"/>
<feBlend mode="normal" in2="BackgroundImageFix" result="effect1_dropShadow_0_78"/>
<feBlend mode="normal" in="SourceGraphic" in2="effect1_dropShadow_0_78" result="shape"/>
</filter>
</defs>
</svg>
