<svg width="65" height="59" viewBox="0 0 65 59" fill="none" xmlns="http://www.w3.org/2000/svg">
<g filter="url(#filter0_d_0_108)">
<path d="M8 12C8 8.68629 10.6863 6 14 6H51C54.3137 6 57 8.68629 57 12V71H8V12Z" fill="white"/>
<circle cx="15" cy="23" r="3" fill="#E60A2B"/>
<rect x="20" y="20" width="20" height="6" fill="#FEE7EA"/>
<rect x="42" y="20" width="11" height="6" fill="#FEF0F2"/>
<circle cx="15" cy="33" r="3" fill="#0EA3FD"/>
<rect x="20" y="30" width="20" height="6" fill="#E1F3FF"/>
<rect x="42" y="30" width="11" height="6" fill="#F5F5F5"/>
<circle cx="15" cy="43" r="3" fill="#F9C320"/>
<rect x="20" y="40" width="20" height="6" fill="#FEF7E1"/>
<rect x="42" y="40" width="11" height="6" fill="#F5F5F5"/>
<circle cx="15" cy="53" r="3" fill="#F5F5F5"/>
<rect x="20" y="50" width="20" height="6" fill="#F5F5F5"/>
<rect x="42" y="50" width="11" height="6" fill="#F5F5F5"/>
<rect x="12" y="10" width="17" height="6" fill="#F5F5F5"/>
<rect x="42" y="12" width="11" height="2" fill="#F5F5F5"/>
</g>
<defs>
<filter id="filter0_d_0_108" x="-2" y="0" width="69" height="85" filterUnits="userSpaceOnUse" color-interpolation-filters="sRGB">
<feFlood flood-opacity="0" result="BackgroundImageFix"/>
<feColorMatrix in="SourceAlpha" type="matrix" values="0 0 0 0 0 0 0 0 0 0 0 0 0 0 0 0 0 0 127 0" result="hardAlpha"/>
<feOffset dy="4"/>
<feGaussianBlur stdDeviation="5"/>
<feComposite in2="hardAlpha" operator="out"/>
<feColorMatrix type="matrix" values="0 0 0 0 0.4 0 0 0 0 0.4 0 0 0 0 0.4 0 0 0 0.1 0"/>
<feBlend mode="normal" in2="BackgroundImageFix" result="effect1_dropShadow_0_108"/>
<feBlend mode="normal" in="SourceGraphic" in2="effect1_dropShadow_0_108" result="shape"/>
</filter>
</defs>
</svg>
